<svg width="38" height="38" viewBox="0 0 38 38" fill="none" xmlns="http://www.w3.org/2000/svg">
<path d="M5.242 30.608C9.43883 28.2358 14.1792 26.9927 19 27C24 27 28.694 28.31 32.758 30.608M25 15C25 16.5913 24.3679 18.1174 23.2426 19.2426C22.1174 20.3679 20.5913 21 19 21C17.4087 21 15.8826 20.3679 14.7574 19.2426C13.6321 18.1174 13 16.5913 13 15C13 13.4087 13.6321 11.8826 14.7574 10.7574C15.8826 9.63214 17.4087 9 19 9C20.5913 9 22.1174 9.63214 23.2426 10.7574C24.3679 11.8826 25 13.4087 25 15ZM37 19C37 21.3638 36.5344 23.7044 35.6298 25.8883C34.7252 28.0722 33.3994 30.0565 31.7279 31.7279C30.0565 33.3994 28.0722 34.7252 25.8883 35.6298C23.7044 36.5344 21.3638 37 19 37C16.6362 37 14.2956 36.5344 12.1117 35.6298C9.92784 34.7252 7.94353 33.3994 6.27208 31.7279C4.60062 30.0565 3.27475 28.0722 2.37017 25.8883C1.46558 23.7044 1 21.3638 1 19C1 14.2261 2.89642 9.64773 6.27208 6.27208C9.64773 2.89642 14.2261 1 19 1C23.7739 1 28.3523 2.89642 31.7279 6.27208C35.1036 9.64773 37 14.2261 37 19Z" stroke="#CC274F" stroke-width="2" stroke-linecap="round" stroke-linejoin="round"/>
</svg>
