<svg width="24" height="25" viewBox="0 0 24 25" fill="none" xmlns="http://www.w3.org/2000/svg">
<path d="M12.0029 6.50052C8.68279 6.50052 6.00478 9.17914 6.00478 12.5C6.00478 15.8208 8.68279 18.4995 12.0029 18.4995C15.323 18.4995 18.001 15.8208 18.001 12.5C18.001 9.17914 15.323 6.50052 12.0029 6.50052ZM12.0029 16.4004C9.85736 16.4004 8.10334 14.6512 8.10334 12.5C8.10334 10.3487 9.85214 8.59955 12.0029 8.59955C14.1537 8.59955 15.9025 10.3487 15.9025 12.5C15.9025 14.6512 14.1484 16.4004 12.0029 16.4004ZM19.6454 6.25511C19.6454 7.03311 19.019 7.65447 18.2464 7.65447C17.4686 7.65447 16.8473 7.02789 16.8473 6.25511C16.8473 5.48234 17.4738 4.85576 18.2464 4.85576C19.019 4.85576 19.6454 5.48234 19.6454 6.25511ZM23.6181 7.67535C23.5293 5.80085 23.1013 4.14042 21.7283 2.7724C20.3606 1.40437 18.7005 0.976212 16.8265 0.882226C14.8949 0.772575 9.10564 0.772575 7.17412 0.882226C5.30526 0.970991 3.6452 1.39915 2.27226 2.76718C0.899323 4.1352 0.476478 5.79563 0.382513 7.67013C0.272886 9.60207 0.272886 15.3927 0.382513 17.3246C0.471258 19.1991 0.899323 20.8596 2.27226 22.2276C3.6452 23.5956 5.30004 24.0238 7.17412 24.1177C9.10564 24.2274 14.8949 24.2274 16.8265 24.1177C18.7005 24.029 20.3606 23.6008 21.7283 22.2276C23.096 20.8596 23.5241 19.1991 23.6181 17.3246C23.7277 15.3927 23.7277 9.6073 23.6181 7.67535ZM21.1228 19.3975C20.7156 20.421 19.9273 21.2094 18.8989 21.6219C17.3589 22.2328 13.7047 22.0918 12.0029 22.0918C10.3011 22.0918 6.64165 22.2276 5.10688 21.6219C4.08371 21.2146 3.29544 20.4262 2.88304 19.3975C2.27226 17.8572 2.41321 14.2022 2.41321 12.5C2.41321 10.7978 2.27748 7.13754 2.88304 5.60243C3.29022 4.57902 4.07849 3.79058 5.10688 3.37809C6.64687 2.76717 10.3011 2.90815 12.0029 2.90815C13.7047 2.90815 17.3642 2.7724 18.8989 3.37809C19.9221 3.78536 20.7104 4.5738 21.1228 5.60243C21.7335 7.14276 21.5926 10.7978 21.5926 12.5C21.5926 14.2022 21.7335 17.8624 21.1228 19.3975Z" fill="white"/>
</svg>
