<svg width="15" height="17" viewBox="0 0 15 17" fill="none" xmlns="http://www.w3.org/2000/svg">
<path d="M3.35759 16.5H0.247768V5.81762H3.35759V16.5ZM1.801 4.36044C0.806585 4.36044 0 3.48185 0 2.42111C7.11763e-09 1.9116 0.189748 1.42296 0.527502 1.06268C0.865256 0.702403 1.32335 0.5 1.801 0.5C2.27866 0.5 2.73675 0.702403 3.07451 1.06268C3.41226 1.42296 3.60201 1.9116 3.60201 2.42111C3.60201 3.48185 2.79509 4.36044 1.801 4.36044ZM14.9967 16.5H11.8935V11.2999C11.8935 10.0606 11.8701 8.47125 10.2767 8.47125C8.65982 8.47125 8.41205 9.81771 8.41205 11.2106V16.5H5.30558V5.81762H8.28817V7.27479H8.3317C8.74687 6.43549 9.76105 5.54976 11.2741 5.54976C14.4214 5.54976 15 7.76052 15 10.632V16.5H14.9967Z" fill="white"/>
</svg>
