<svg width="32" height="28" viewBox="0 0 32 28" fill="none" xmlns="http://www.w3.org/2000/svg">
<path d="M21.3333 5.6C21.3333 7.08521 20.7714 8.50959 19.7712 9.5598C18.771 10.61 17.4145 11.2 16 11.2C14.5855 11.2 13.229 10.61 12.2288 9.5598C11.2286 8.50959 10.6667 7.08521 10.6667 5.6C10.6667 4.11479 11.2286 2.69041 12.2288 1.6402C13.229 0.589998 14.5855 0 16 0C17.4145 0 18.771 0.589998 19.7712 1.6402C20.7714 2.69041 21.3333 4.11479 21.3333 5.6ZM30.2222 9.33333C30.2222 10.3235 29.8476 11.2731 29.1808 11.9732C28.514 12.6733 27.6097 13.0667 26.6667 13.0667C25.7237 13.0667 24.8193 12.6733 24.1525 11.9732C23.4857 11.2731 23.1111 10.3235 23.1111 9.33333C23.1111 8.34319 23.4857 7.3936 24.1525 6.69347C24.8193 5.99333 25.7237 5.6 26.6667 5.6C27.6097 5.6 28.514 5.99333 29.1808 6.69347C29.8476 7.3936 30.2222 8.34319 30.2222 9.33333ZM23.1111 22.4C23.1111 20.4197 22.3619 18.5205 21.0283 17.1203C19.6947 15.72 17.886 14.9333 16 14.9333C14.114 14.9333 12.3053 15.72 10.9717 17.1203C9.63809 18.5205 8.88889 20.4197 8.88889 22.4V28H23.1111V22.4ZM8.88889 9.33333C8.88889 10.3235 8.51429 11.2731 7.84749 11.9732C7.1807 12.6733 6.27633 13.0667 5.33333 13.0667C4.39034 13.0667 3.48597 12.6733 2.81918 11.9732C2.15238 11.2731 1.77778 10.3235 1.77778 9.33333C1.77778 8.34319 2.15238 7.3936 2.81918 6.69347C3.48597 5.99333 4.39034 5.6 5.33333 5.6C6.27633 5.6 7.1807 5.99333 7.84749 6.69347C8.51429 7.3936 8.88889 8.34319 8.88889 9.33333ZM26.6667 28V22.4C26.6692 20.5021 26.2103 18.635 25.3333 16.9755C26.1215 16.7637 26.9453 16.7437 27.742 16.9171C28.5386 17.0904 29.287 17.4526 29.9301 17.9758C30.5732 18.4991 31.0939 19.1697 31.4527 19.9364C31.8114 20.7031 31.9986 21.5458 32 22.4V28H26.6667ZM6.66667 16.9755C5.78977 18.635 5.33084 20.5021 5.33333 22.4V28H4.72391e-07V22.4C-0.000342165 21.5451 0.185713 20.7015 0.543906 19.9339C0.902099 19.1662 1.42292 18.4948 2.06646 17.9712C2.71 17.4475 3.45917 17.0856 4.25655 16.913C5.05394 16.7404 5.87837 16.7618 6.66667 16.9755Z" fill="white"/>
</svg>
