<svg width="32" height="32" viewBox="0 0 32 32" fill="none" xmlns="http://www.w3.org/2000/svg">
<g clip-path="url(#clip0_46_131)">
<mask id="mask0_46_131" style="mask-type:luminance" maskUnits="userSpaceOnUse" x="0" y="0" width="32" height="32">
<path d="M0 0H32V32H0V0Z" fill="white"/>
</mask>
<g mask="url(#mask0_46_131)">
<path d="M22.7888 24.3888C20.9883 26.1893 18.5463 27.2008 16 27.2008C13.4537 27.2008 11.0117 26.1893 9.21118 24.3888C7.41068 22.5883 6.39917 20.1463 6.39917 17.6C6.39917 15.0537 7.41068 12.6117 9.21118 10.8112C9.21118 14.4 9.59998 17.6 14.4 19.2C14.4 16 16 6.39999 18.4 4.79999C20 7.99999 20.9136 8.93759 22.7872 10.8112C23.6802 11.7016 24.3885 12.7598 24.8712 13.9248C25.3539 15.0899 25.6016 16.3389 25.6 17.6C25.6017 18.861 25.3542 20.1099 24.8718 21.2749C24.3894 22.4399 23.6815 23.4982 22.7888 24.3888Z" fill="white" stroke="white" stroke-width="2" stroke-linecap="round" stroke-linejoin="round"/>
<path d="M12.6064 24.1936C13.0492 24.652 13.5789 25.0177 14.1645 25.2693C14.7501 25.5208 15.3799 25.6532 16.0173 25.6588C16.6546 25.6643 17.2867 25.5429 17.8766 25.3015C18.4665 25.0602 19.0024 24.7037 19.4531 24.2531C19.9038 23.8024 20.2602 23.2664 20.5016 22.6765C20.7429 22.0866 20.8644 21.4546 20.8588 20.8172C20.8533 20.1799 20.7209 19.55 20.4693 18.9644C20.2177 18.3788 19.8521 17.8491 19.3936 17.4064C18.4576 16.4688 18 16 17.2 14.4C16 15.2 15.2 20 15.2 21.6C12.6064 21.6 11.2 20.8 11.2 20.8C11.2 22.0288 11.6688 23.2576 12.6064 24.1936Z" fill="white"/>
</g>
</g>
<defs>
<clipPath id="clip0_46_131">
<rect width="32" height="32" fill="white"/>
</clipPath>
</defs>
</svg>
